[
    {
        "start": {
            "timestamp": {
                "n": 1,
                "pts": 1,
                "pts_time": 0.0333333
            },
            "event": {
                "type": "start_marker",
                "trial_type": "animation",
                "trial_index": "trial-1-1"
            }
        },
        "end": {
            "timestamp": {
                "n": 30,
                "pts": 30,
                "pts_time": 1
            },
            "event": {
                "type": "end_marker",
                "trial_type": "animation",
                "trial_index": "0",
                "time_elapsed": "953"
            }
        }
    },
    {
        "start": {
            "timestamp": {
                "n": 31,
                "pts": 31,
                "pts_time": 1.03333
            },
            "event": {
                "type": "start_marker",
                "trial_type": "disks",
                "trial_index": "disk-condition-4-1"
            }
        },
        "end": {
            "timestamp": {
                "n": 273,
                "pts": 273,
                "pts_time": 9.1
            },
            "event": {
                "type": "end_marker",
                "trial_type": "disks",
                "trial_index": "1",
                "time_elapsed": "9058"
            }
        }
    },
    {
        "start": {
            "timestamp": {
                "n": 274,
                "pts": 274,
                "pts_time": 9.13333
            },
            "event": {
                "type": "start_marker",
                "trial_type": "animation",
                "trial_index": "trial-1-3"
            }
        },
        "end": {
            "timestamp": {
                "n": 394,
                "pts": 394,
                "pts_time": 13.1333
            },
            "event": {
                "type": "end_marker",
                "trial_type": "animation",
                "trial_index": "2",
                "time_elapsed": "13088"
            }
        }
    },
    {
        "start": {
            "timestamp": {
                "n": 395,
                "pts": 395,
                "pts_time": 13.1667
            },
            "event": {
                "type": "start_marker",
                "trial_type": "disks",
                "trial_index": "disk-condition-4-2"
            }
        },
        "end": {
            "timestamp": {
                "n": 635,
                "pts": 635,
                "pts_time": 21.1667
            },
            "event": {
                "type": "end_marker",
                "trial_type": "disks",
                "trial_index": "3",
                "time_elapsed": "21140"
            }
        }
    },
    {
        "start": {
            "timestamp": {
                "n": 636,
                "pts": 636,
                "pts_time": 21.2
            },
            "event": {
                "type": "start_marker",
                "trial_type": "animation",
                "trial_index": "trial-1-5"
            }
        },
        "end": {
            "timestamp": {
                "n": 673,
                "pts": 673,
                "pts_time": 22.4333
            },
            "event": {
                "type": "end_marker",
                "trial_type": "animation",
                "trial_index": "4",
                "time_elapsed": "22409"
            }
        }
    },
    {
        "start": {
            "timestamp": {
                "n": 674,
                "pts": 674,
                "pts_time": 22.4667
            },
            "event": {
                "type": "start_marker",
                "trial_type": "disks",
                "trial_index": "disk-condition-4-1"
            }
        },
        "end": {
            "timestamp": {
                "n": 915,
                "pts": 915,
                "pts_time": 30.5
            },
            "event": {
                "type": "end_marker",
                "trial_type": "disks",
                "trial_index": "5",
                "time_elapsed": "30460"
            }
        }
    },
    {
        "start": {
            "timestamp": {
                "n": 916,
                "pts": 916,
                "pts_time": 30.5333
            },
            "event": {
                "type": "start_marker",
                "trial_type": "animation",
                "trial_index": "trial-1-7"
            }
        },
        "end": {
            "timestamp": {
                "n": 930,
                "pts": 930,
                "pts_time": 31
            },
            "event": {
                "type": "end_marker",
                "trial_type": "animation",
                "trial_index": "6",
                "time_elapsed": "30945"
            }
        }
    },
    {
        "start": {
            "timestamp": {
                "n": 931,
                "pts": 931,
                "pts_time": 31.0333
            },
            "event": {
                "type": "start_marker",
                "trial_type": "disks",
                "trial_index": "disk-condition-4-2"
            }
        },
        "end": {
            "timestamp": {
                "n": 1171,
                "pts": 1171,
                "pts_time": 39.0333
            },
            "event": {
                "type": "end_marker",
                "trial_type": "disks",
                "trial_index": "7",
                "time_elapsed": "38985"
            }
        }
    },
    {
        "start": {
            "timestamp": {
                "n": 1172,
                "pts": 1172,
                "pts_time": 39.0667
            },
            "event": {
                "type": "start_marker",
                "trial_type": "animation",
                "trial_index": "trial-1-9"
            }
        },
        "end": {
            "timestamp": {
                "n": 1185,
                "pts": 1185,
                "pts_time": 39.5
            },
            "event": {
                "type": "end_marker",
                "trial_type": "animation",
                "trial_index": "8",
                "time_elapsed": "39481"
            }
        }
    },
    {
        "start": {
            "timestamp": {
                "n": 1186,
                "pts": 1186,
                "pts_time": 39.5333
            },
            "event": {
                "type": "start_marker",
                "trial_type": "disks",
                "trial_index": "disk-condition-4-1"
            }
        },
        "end": {
            "timestamp": {
                "n": 1427,
                "pts": 1427,
                "pts_time": 47.5667
            },
            "event": {
                "type": "end_marker",
                "trial_type": "disks",
                "trial_index": "9",
                "time_elapsed": "47522"
            }
        }
    },
    {
        "start": {
            "timestamp": {
                "n": 1428,
                "pts": 1428,
                "pts_time": 47.6
            },
            "event": {
                "type": "start_marker",
                "trial_type": "animation",
                "trial_index": "trial-1-11"
            }
        },
        "end": {
            "timestamp": {
                "n": 1444,
                "pts": 1444,
                "pts_time": 48.1333
            },
            "event": {
                "type": "end_marker",
                "trial_type": "animation",
                "trial_index": "10",
                "time_elapsed": "48089"
            }
        }
    },
    {
        "start": {
            "timestamp": {
                "n": 1445,
                "pts": 1445,
                "pts_time": 48.1667
            },
            "event": {
                "type": "start_marker",
                "trial_type": "disks",
                "trial_index": "disk-condition-4-1"
            }
        },
        "end": {
            "timestamp": {
                "n": 1685,
                "pts": 1685,
                "pts_time": 56.1667
            },
            "event": {
                "type": "end_marker",
                "trial_type": "disks",
                "trial_index": "11",
                "time_elapsed": "56143"
            }
        }
    },
    {
        "start": {
            "timestamp": {
                "n": 1686,
                "pts": 1686,
                "pts_time": 56.2
            },
            "event": {
                "type": "start_marker",
                "trial_type": "animation",
                "trial_index": "trial-1-13"
            }
        },
        "end": {
            "timestamp": {
                "n": 1709,
                "pts": 1709,
                "pts_time": 56.9667
            },
            "event": {
                "type": "end_marker",
                "trial_type": "animation",
                "trial_index": "12",
                "time_elapsed": "56929"
            }
        }
    },
    {
        "start": {
            "timestamp": {
                "n": 1710,
                "pts": 1710,
                "pts_time": 57
            },
            "event": {
                "type": "start_marker",
                "trial_type": "disks",
                "trial_index": "disk-condition-4-2"
            }
        },
        "end": {
            "timestamp": {
                "n": 1950,
                "pts": 1950,
                "pts_time": 65
            },
            "event": {
                "type": "end_marker",
                "trial_type": "disks",
                "trial_index": "13",
                "time_elapsed": "64966"
            }
        }
    }
]